<svg xmlns="http://www.w3.org/2000/svg" version="1.1" xmlns:xlink="http://www.w3.org/1999/xlink" xmlns:svgjs="http://svgjs.dev/svgjs" width="1500" height="655" viewBox="0 0 1500 655"><g transform="matrix(1,0,0,1,-0.9090909090909918,-0.807224266187859)"><svg viewBox="0 0 396 173" data-background-color="#ffffff" preserveAspectRatio="xMidYMid meet" height="655" width="1500" xmlns="http://www.w3.org/2000/svg" xmlns:xlink="http://www.w3.org/1999/xlink"><g id="tight-bounds" transform="matrix(1,0,0,1,0.2400000000000091,0.21320579855037636)"><svg viewBox="0 0 395.52 172.57358840289925" height="172.57358840289925" width="395.52"><g><svg viewBox="0 0 395.52 172.57358840289925" height="172.57358840289925" width="395.52"><g><svg viewBox="0 0 395.52 172.57358840289925" height="172.57358840289925" width="395.52"><g id="textblocktransform"><svg viewBox="0 0 395.52 172.57358840289925" height="172.57358840289925" width="395.52" id="textblock"><g><svg viewBox="0 0 395.52 172.57358840289925" height="172.57358840289925" width="395.52"><rect width="395.52" height="172.57358840289925" x="0" y="0" opacity="1" fill="#84a29f" data-fill-palette-color="tertiary"></rect><g transform="matrix(1,0,0,1,23.607599999999998,23.60759999999999)"><svg width="348.3048" viewBox="0.98 -35.16 97.67 35.16" height="125.35838840289927" data-palette-color="#ffffff"><path d="M20.24-30.66L20.24 0 10.55 0 10.55-30.66 0.98-30.66 0.98-35.16 29.81-35.16 29.81-30.66 20.24-30.66ZM60.01-4.47L60.01 0 34.76 0 34.76-35.16 44.46-35.16 44.46-4.47 60.01-4.47ZM98.65-17.63L98.65-17.63Q98.65-15.06 97.97-12.76 97.29-10.45 96.05-8.5 94.82-6.54 93.11-4.97 91.4-3.39 89.34-2.29 87.28-1.2 84.92-0.6 82.56 0 80.07 0L80.07 0 64.57 0 64.57-35.16 80.07-35.16Q82.56-35.16 84.91-34.57 87.25-33.98 89.31-32.9 91.38-31.81 93.1-30.25 94.82-28.69 96.05-26.75 97.29-24.8 97.97-22.5 98.65-20.19 98.65-17.63ZM88.81-17.63L88.81-17.63Q88.81-20.48 88.12-23.06 87.42-25.63 85.96-27.59 84.49-29.54 82.23-30.69 79.98-31.84 76.83-31.84L76.83-31.84 74.26-31.84 74.26-3.42 76.83-3.42Q79.93-3.42 82.18-4.58 84.44-5.74 85.92-7.7 87.4-9.67 88.11-12.23 88.81-14.79 88.81-17.63Z" opacity="1" transform="matrix(1,0,0,1,0,0)" fill="#ffffff" class="wordmark-text-0" data-fill-palette-color="quaternary" id="text-0"></path></svg></g></svg></g></svg></g></svg></g></svg></g><defs></defs></svg><rect width="395.52" height="172.57358840289925" fill="none" stroke="none" visibility="hidden"></rect></g></svg></g></svg>